<svg width="800" height="500" viewBox="0 0 800 500" fill="none" xmlns="http://www.w3.org/2000/svg">
  <rect width="800" height="500" fill="#F8FAFC"/>
  
  <!-- Online Boutique illustration -->
  <rect x="150" y="150" width="500" height="300" rx="8" fill="#FCE7F3"/>
  
  <!-- Laptop showing online store -->
  <rect x="250" y="200" width="300" height="200" rx="8" fill="#64748B"/>
  <rect x="260" y="210" width="280" height="170" rx="2" fill="white"/>
  
  <!-- Store header on screen -->
  <rect x="260" y="210" width="280" height="30" rx="2" fill="#FF7E5F"/>
  <text x="400" y="230" font-family="Arial" font-size="14" font-weight="bold" fill="white" text-anchor="middle">CHIC TRENDS</text>
  
  <!-- Products on screen -->
  <rect x="270" y="250" width="80" height="100" rx="2" fill="#F1F5F9"/>
  <rect x="360" y="250" width="80" height="100" rx="2" fill="#F1F5F9"/>
  <rect x="450" y="250" width="80" height="100" rx="2" fill="#F1F5F9"/>
  
  <!-- Shopping carts flying around -->
  <rect x="200" y="170" width="30" height="20" rx="4" fill="#FEB47B"/>
  <circle cx="210" cy="195" r="5" fill="#64748B"/>
  <circle cx="220" cy="195" r="5" fill="#64748B"/>
  
  <rect x="570" y="170" width="30" height="20" rx="4" fill="#FEB47B"/>
  <circle cx="580" cy="195" r="5" fill="#64748B"/>
  <circle cx="590" cy="195" r="5" fill="#64748B"/>
  
  <rect x="570" y="320" width="30" height="20" rx="4" fill="#FEB47B"/>
  <circle cx="580" cy="345" r="5" fill="#64748B"/>
  <circle cx="590" cy="345" r="5" fill="#64748B"/>
  
  <rect x="200" y="320" width="30" height="20" rx="4" fill="#FEB47B"/>
  <circle cx="210" cy="345" r="5" fill="#64748B"/>
  <circle cx="220" cy="345" r="5" fill="#64748B"/>
  
  <!-- Money signs for sales -->
  <text x="180" y="240" font-family="Arial" font-size="24" font-weight="bold" fill="#10B981">$</text>
  <text x="590" y="240" font-family="Arial" font-size="24" font-weight="bold" fill="#10B981">$</text>
  <text x="180" y="290" font-family="Arial" font-size="24" font-weight="bold" fill="#10B981">$</text>
  <text x="590" y="290" font-family="Arial" font-size="24" font-weight="bold" fill="#10B981">$</text>
  
  <!-- ROI chart -->
  <rect x="600" y="220" width="100" height="160" rx="4" fill="white" stroke="#E2E8F0" stroke-width="2"/>
  <text x="650" y="240" font-family="Arial" font-size="12" font-weight="bold" fill="#64748B" text-anchor="middle">AD SPEND ROI</text>
  
  <!-- Chart bars -->
  <rect x="620" y="330" width="20" height="30" rx="2" fill="#94A3B8"/>
  <text x="630" y="370" font-family="Arial" font-size="10" fill="#64748B" text-anchor="middle">Others</text>
  
  <rect x="660" y="250" width="20" height="110" rx="2" fill="#FF7E5F"/>
  <text x="670" y="370" font-family="Arial" font-size="10" fill="#64748B" text-anchor="middle">Chic</text>
  
  <!-- Stats indicator -->
  <rect x="300" y="100" width="200" height="40" rx="20" fill="#10B981"/>
  <text x="400" y="125" font-family="Arial" font-size="16" font-weight="bold" fill="white" text-anchor="middle">+215% AD SPEND ROI</text>
</svg> 