<svg width="800" height="500" viewBox="0 0 800 500" fill="none" xmlns="http://www.w3.org/2000/svg">
  <rect width="800" height="500" fill="#F8FAFC"/>
  
  <!-- Coffee shop illustration -->
  <rect x="150" y="150" width="500" height="300" rx="8" fill="#FFF1E7"/>
  
  <!-- Coffee shop storefront -->
  <rect x="200" y="200" width="400" height="200" rx="4" fill="#FFFFFF" stroke="#E2E8F0" stroke-width="2"/>
  
  <!-- Door -->
  <rect x="350" y="280" width="100" height="120" rx="2" fill="#FF7E5F" stroke="#E2E8F0" stroke-width="2"/>
  
  <!-- Windows -->
  <rect x="230" y="230" width="80" height="80" rx="2" fill="#FEF9C3" stroke="#E2E8F0" stroke-width="2"/>
  <rect x="490" y="230" width="80" height="80" rx="2" fill="#FEF9C3" stroke="#E2E8F0" stroke-width="2"/>
  
  <!-- Signage -->
  <rect x="270" y="170" width="260" height="40" rx="4" fill="#FF7E5F"/>
  <text x="400" y="195" font-family="Arial" font-size="18" font-weight="bold" fill="white" text-anchor="middle">URBAN BEANS</text>
  
  <!-- Coffee cups -->
  <circle cx="270" cy="350" r="20" fill="#FEB47B" stroke="#E2E8F0" stroke-width="2"/>
  <rect x="260" y="330" width="20" height="5" rx="2" fill="#FF7E5F"/>
  
  <circle cx="530" cy="350" r="20" fill="#FEB47B" stroke="#E2E8F0" stroke-width="2"/>
  <rect x="520" y="330" width="20" height="5" rx="2" fill="#FF7E5F"/>
  
  <!-- People coming to shop -->
  <circle cx="150" cy="350" r="15" fill="#64748B"/>
  <circle cx="120" cy="380" r="15" fill="#64748B"/>
  <circle cx="180" cy="380" r="15" fill="#64748B"/>
  <circle cx="150" cy="410" r="15" fill="#64748B"/>
  
  <circle cx="650" cy="350" r="15" fill="#64748B"/>
  <circle cx="620" cy="380" r="15" fill="#64748B"/>
  <circle cx="680" cy="380" r="15" fill="#64748B"/>
  <circle cx="650" cy="410" r="15" fill="#64748B"/>
  
  <!-- Arrows showing traffic -->
  <path d="M200 350 L250 350" stroke="#FF7E5F" stroke-width="3" marker-end="url(#arrowhead)"/>
  <path d="M550 350 L600 350" stroke="#FF7E5F" stroke-width="3" marker-end="url(#arrowhead)"/>
  
  <!-- Arrow marker definition -->
  <defs>
    <marker id="arrowhead" markerWidth="10" markerHeight="7" refX="0" refY="3.5" orient="auto">
      <polygon points="0 0, 10 3.5, 0 7" fill="#FF7E5F"/>
    </marker>
  </defs>
  
  <!-- Stats indicator -->
  <rect x="300" y="100" width="200" height="40" rx="20" fill="#10B981"/>
  <text x="400" y="125" font-family="Arial" font-size="16" font-weight="bold" fill="white" text-anchor="middle">+143% FOOT TRAFFIC</text>
</svg> 